<svg width="18" height="15" viewBox="0 0 18 15" fill="none" xmlns="http://www.w3.org/2000/svg">
<path d="M9.0009 14.5105C8.92998 14.5105 8.85952 14.5001 8.78995 14.4775C8.43174 14.3605 0 11.5341 0 5.2232C0 2.3426 2.3435 0 5.2232 0C6.66462 0 8.02248 0.5922 9 1.61534C9.97751 0.590393 11.3363 0 12.7773 0C15.6574 0 18 2.3435 18 5.2232C18 11.5359 9.56916 14.361 9.21005 14.4775C9.14274 14.4996 9.07137 14.5105 9.0009 14.5105ZM5.22365 1.35425C3.09064 1.35425 1.35605 3.09019 1.35605 5.22229C1.35605 10.0642 7.74784 12.6535 9.0009 13.1151C10.2526 12.6539 16.6467 10.0557 16.6467 5.22229C16.6467 3.08929 14.9112 1.35425 12.7786 1.35425C11.4872 1.35425 10.2847 1.99659 9.56464 3.07212C9.31168 3.44705 8.69057 3.44705 8.43897 3.07212C7.71712 1.99568 6.51465 1.35425 5.22365 1.35425Z" fill="black"/>
</svg>
